<svg width="48" height="49" viewBox="0 0 48 49" fill="none" xmlns="http://www.w3.org/2000/svg">
    <path d="M13 40.801C9.96667 40.801 7.375 39.751 5.225 37.651C3.075 35.551 2 32.9844 2 29.951C2 27.351 2.78333 25.0344 4.35 23.001C5.91667 20.9677 7.96667 19.6677 10.5 19.101C11.3333 16.0344 13 13.551 15.5 11.651C18 9.75103 20.8333 8.80103 24 8.80103C27.9 8.80103 31.2083 10.1594 33.925 12.876C36.6417 15.5927 38 18.901 38 22.801C40.3 23.0677 42.2083 24.0594 43.725 25.776C45.2417 27.4927 46 29.501 46 31.801C46 34.301 45.125 36.426 43.375 38.176C41.625 39.926 39.5 40.801 37 40.801H13ZM13 36.801H37C38.4 36.801 39.5833 36.3177 40.55 35.351C41.5167 34.3844 42 33.201 42 31.801C42 30.401 41.5167 29.2177 40.55 28.251C39.5833 27.2844 38.4 26.801 37 26.801H34V22.801C34 20.0344 33.025 17.676 31.075 15.726C29.125 13.776 26.7667 12.801 24 12.801C21.2333 12.801 18.875 13.776 16.925 15.726C14.975 17.676 14 20.0344 14 22.801H13C11.0667 22.801 9.41667 23.4844 8.05 24.851C6.68333 26.2177 6 27.8677 6 29.801C6 31.7344 6.68333 33.3844 8.05 34.751C9.41667 36.1177 11.0667 36.801 13 36.801Z" fill="#00619E"/>
</svg>
