<svg width="20" height="20" viewBox="0 0 20 20" fill="none" xmlns="http://www.w3.org/2000/svg">
    <path d="M19.8596 18.316L15.1176 13.574C15.0741 13.5302 15.0224 13.4956 14.9654 13.4721C14.9084 13.4485 14.8473 13.4366 14.7856 13.437H14.2696C15.6446 11.8456 16.3487 9.78287 16.2339 7.68286C16.1191 5.58286 15.1942 3.60924 13.6539 2.17723C12.1136 0.745218 10.0779 -0.0335595 7.97509 0.0047357C5.8723 0.0430309 3.86632 0.895414 2.37917 2.38256C0.892026 3.86971 0.0396434 5.87569 0.00134825 7.97848C-0.0369469 10.0813 0.741831 12.117 2.17384 13.6573C3.60586 15.1976 5.57947 16.1224 7.67947 16.2373C9.77948 16.3521 11.8422 15.648 13.4336 14.273V14.789C13.4346 14.9132 13.4837 15.0322 13.5706 15.121L18.3126 19.863C18.3562 19.9066 18.4079 19.9413 18.4649 19.9649C18.5219 19.9886 18.5829 20.0007 18.6446 20.0007C18.7063 20.0007 18.7674 19.9886 18.8243 19.9649C18.8813 19.9413 18.933 19.9066 18.9766 19.863L19.8596 18.98C19.9033 18.9364 19.9379 18.8847 19.9615 18.8277C19.9852 18.7707 19.9973 18.7097 19.9973 18.648C19.9973 18.5863 19.9852 18.5252 19.9615 18.4683C19.9379 18.4113 19.9033 18.3596 19.8596 18.316ZM8.1226 14.374C6.88647 14.374 5.67809 14.0074 4.65029 13.3207C3.62248 12.6339 2.8214 11.6578 2.34835 10.5158C1.87531 9.37372 1.75153 8.11705 1.99269 6.90467C2.23385 5.69229 2.8291 4.57865 3.70318 3.70457C4.57726 2.83049 5.6909 2.23524 6.90329 1.99408C8.11567 1.75292 9.37233 1.87669 10.5144 2.34974C11.6564 2.82279 12.6325 3.62387 13.3193 4.65167C14.006 5.67948 14.3726 6.88785 14.3726 8.12399C14.3729 8.94482 14.2114 9.75767 13.8974 10.5161C13.5834 11.2745 13.123 11.9636 12.5426 12.544C11.9622 13.1244 11.2731 13.5848 10.5147 13.8988C9.75628 14.2128 8.94344 14.3743 8.1226 14.374Z" fill="white"/>
</svg>
