<svg width="48" height="49" viewBox="0 0 48 49" fill="none" xmlns="http://www.w3.org/2000/svg">
    <path d="M24 32.301C21.8 32.301 19.9167 31.5177 18.35 29.951C16.7833 28.3844 16 26.501 16 24.301C16 22.101 16.7833 20.2177 18.35 18.651C19.9167 17.0844 21.8 16.301 24 16.301C26.2 16.301 28.0833 17.0844 29.65 18.651C31.2167 20.2177 32 22.101 32 24.301C32 26.501 31.2167 28.3844 29.65 29.951C28.0833 31.5177 26.2 32.301 24 32.301ZM24 28.301C25.1 28.301 26.0417 27.9094 26.825 27.126C27.6083 26.3427 28 25.401 28 24.301C28 23.201 27.6083 22.2594 26.825 21.476C26.0417 20.6927 25.1 20.301 24 20.301C22.9 20.301 21.9583 20.6927 21.175 21.476C20.3917 22.2594 20 23.201 20 24.301C20 25.401 20.3917 26.3427 21.175 27.126C21.9583 27.9094 22.9 28.301 24 28.301ZM10 42.301C8.9 42.301 7.95833 41.9094 7.175 41.126C6.39167 40.3427 6 39.401 6 38.301V30.301H10V38.301H18V42.301H10ZM30 42.301V38.301H38V30.301H42V38.301C42 39.401 41.6083 40.3427 40.825 41.126C40.0417 41.9094 39.1 42.301 38 42.301H30ZM6 18.301V10.301C6 9.20103 6.39167 8.25936 7.175 7.47603C7.95833 6.69269 8.9 6.30103 10 6.30103H18V10.301H10V18.301H6ZM38 18.301V10.301H30V6.30103H38C39.1 6.30103 40.0417 6.69269 40.825 7.47603C41.6083 8.25936 42 9.20103 42 10.301V18.301H38Z" fill="#FBAB18"/>
</svg>
