<?xml version="1.0" encoding="UTF-8"?><svg id="Laag_1" xmlns="http://www.w3.org/2000/svg" viewBox="0 0 379.82 332.2"><defs><style>.cls-1{fill:#f7ab1f;}.cls-2{fill:#10ad9c;}.cls-3{fill:#fff;}</style></defs><path class="cls-3" d="M327.96,128.14c.31-3.47.49-6.99.49-10.54C328.45,52.65,275.8,0,210.86,0c-47.64,0-88.62,28.34-107.11,69.06-4.23-.6-8.53-.9-12.89-.9-24.27,0-47.08,9.45-64.25,26.61C9.45,111.93,0,134.75,0,159.01s9.45,47.09,26.61,64.25c17.17,17.16,39.98,26.61,64.25,26.61h203.2c36.17,0,65.6-29.43,65.6-65.6,0-23.78-12.72-44.63-31.7-56.14"/><path class="cls-1" d="M153.81,61.41h35.67v-27.38h-35.67c-3.76,0-6.84,3.08-6.84,6.85v13.69c0,3.76,3.08,6.84,6.84,6.84"/><path class="cls-1" d="M270.15,54.57v-13.69c0-3.76-3.08-6.84-6.84-6.84h-35.67v27.37h35.67c3.76,0,6.84-3.08,6.84-6.84"/><path class="cls-1" d="M222.25,27.2c0-3.76-3.08-6.84-6.84-6.84h-13.69c-3.76,0-6.84,3.08-6.84,6.84v47.24c0,7.56,6.13,13.69,13.69,13.69s13.69-6.13,13.69-13.69V27.2Z"/><path class="cls-2" d="M355.36,23.96c-13.51,0-24.47,10.95-24.47,24.46,0,2.84.51,5.56,1.4,8.09l-44.11,27.28c-3.82-8.26-8.87-15.84-14.94-22.48-2.16,3.17-5.81,5.27-9.93,5.27h-2.99c6.4,6.16,11.7,13.45,15.6,21.54h-34.1c-12.7,0-23,10.3-23,23s10.3,23,23,23c.44,0,.53.02.52.03.06-.01.18-.03.42-.07,2.06,0,2.29-.26,6.74-.26,14.53,0,12.99,17.18,12.99,17.18,0,7.23,2.28,11.84,5.34,14.83-13.67,17.79-35.14,29.28-59.26,29.28-16.26,0-31.31-5.24-43.59-14.09h30.83c12.7,0,23-10.3,23-23s-10.3-23-23-23c-.44,0-.53-.02-.52-.03-.06.01-.18.03-.42.07-2.06,0-2.29.26-6.74.26-14.53,0-12.99-17.18-12.99-17.18,0-22.42-17.18-30.02-17.18-30.02l-12.69-7.35c3.27-5.19,7.15-9.96,11.55-14.19h-3.01c-4.12,0-7.76-2.09-9.92-5.26-3.66,4-6.94,8.35-9.82,12.97l-3.34-1.93h0s-57.26-34.18-57.26-34.18c.81-2.43,1.27-5.03,1.27-7.73,0-13.51-10.95-24.47-24.46-24.47s-24.47,10.95-24.47,24.47,10.95,24.46,24.47,24.46c7.02,0,13.34-2.98,17.8-7.72l60.58,36.16c-4.96,10.99-7.77,23.16-7.77,36.01,0,1.53.05,3.06.13,4.57.77,19.29,7.8,36.99,19.12,51.13l-13.99,8.65c-4.45-4.58-10.66-7.43-17.55-7.43-13.51,0-24.47,10.95-24.47,24.46s10.95,24.47,24.47,24.47,24.46-10.95,24.46-24.47c0-2.84-.51-5.55-1.4-8.09l15.63-9.67c14.64,14.34,34.27,23.6,56.02,24.89v75.97c-10.98,2.41-19.21,12.18-19.21,23.88,0,13.51,10.95,24.47,24.46,24.47s24.47-10.95,24.47-24.47c0-11.71-8.23-21.48-19.21-23.88v-75.97c24.15-1.43,45.69-12.69,60.69-29.83l13.31,9.42c-1.24,2.93-1.92,6.14-1.92,9.52,0,13.51,10.95,24.46,24.46,24.46s24.47-10.95,24.47-24.46-10.95-24.47-24.47-24.47c-6.34,0-12.1,2.43-16.44,6.39l-12.96-9.17c9.62-14.07,15.26-31.06,15.26-49.35,0-.08,0-.17,0-.25,0-.27.03-.52.03-.79,0-8.98-1.39-17.63-3.9-25.79l45.48-28.13c4.45,4.58,10.66,7.43,17.55,7.43,13.51,0,24.46-10.95,24.46-24.47s-10.95-24.46-24.46-24.46ZM50.31,44.21c-7.57,0-13.71-6.14-13.71-13.71s6.14-13.71,13.71-13.71,13.71,6.14,13.71,13.71-6.14,13.71-13.71,13.71ZM310.34,183.3c7.57,0,13.71,6.14,13.71,13.71s-6.14,13.71-13.71,13.71-13.71-6.14-13.71-13.71,6.14-13.71,13.71-13.71ZM222.28,307.63c0,7.57-6.14,13.71-13.71,13.71s-13.71-6.14-13.71-13.71,6.14-13.71,13.71-13.71,13.71,6.14,13.71,13.71Z"/></svg>
