<svg width="16" height="17" viewBox="0 0 16 17" fill="none" xmlns="http://www.w3.org/2000/svg">
    <path d="M15.8406 5.60098C15.8406 5.60098 15.6844 4.49785 15.2031 4.01348C14.5938 3.37598 13.9125 3.37285 13.6 3.33535C11.3625 3.17285 8.00313 3.17285 8.00313 3.17285H7.99687C7.99687 3.17285 4.6375 3.17285 2.4 3.33535C2.0875 3.37285 1.40625 3.37598 0.796875 4.01348C0.315625 4.49785 0.1625 5.60098 0.1625 5.60098C0.1625 5.60098 0 6.89785 0 8.1916V9.4041C0 10.6979 0.159375 11.9947 0.159375 11.9947C0.159375 11.9947 0.315625 13.0979 0.79375 13.5822C1.40313 14.2197 2.20313 14.1979 2.55938 14.2666C3.84063 14.3885 8 14.426 8 14.426C8 14.426 11.3625 14.4197 13.6 14.2604C13.9125 14.2229 14.5938 14.2197 15.2031 13.5822C15.6844 13.0979 15.8406 11.9947 15.8406 11.9947C15.8406 11.9947 16 10.701 16 9.4041V8.1916C16 6.89785 15.8406 5.60098 15.8406 5.60098ZM6.34688 10.876V6.3791L10.6687 8.63535L6.34688 10.876Z" fill="white"/>
</svg>
