<svg width="89" height="32" viewBox="0 0 89 32" fill="none" xmlns="http://www.w3.org/2000/svg">
    <path d="M88.4384 20.876V15.385C88.4501 13.9873 88.3313 12.5916 88.0834 11.216C87.7784 9.89401 86.6084 7.70801 82.8464 7.25001C82.1464 7.20001 81.3964 7.20001 80.6464 7.20001H80.6124C79.377 7.2311 78.1538 7.4534 76.9864 7.85901C75.9477 8.31325 75.0708 9.07145 74.4714 10.0338C73.872 10.9961 73.5781 12.1174 73.6284 13.25H77.6944C77.6698 12.7167 77.8073 12.1885 78.0888 11.7349C78.3703 11.2813 78.7826 10.9236 79.2714 10.709C79.7078 10.5352 80.1737 10.4473 80.6434 10.45C81.13 10.4093 81.6197 10.4649 82.0848 10.6137C82.5498 10.7625 82.9809 11.0015 83.3534 11.317C83.5759 11.5387 83.7357 11.8154 83.8165 12.119C83.8973 12.4225 83.8962 12.742 83.8134 13.045C83.5584 14.113 82.3894 14.468 80.6134 14.723V14.728C80.0134 14.828 79.3134 14.877 78.5664 14.977C76.4314 15.231 73.3804 16.299 72.6664 19.4C72.4948 20.3104 72.5743 21.2503 72.8966 22.1189C73.2188 22.9875 73.7715 23.7519 74.4954 24.33C75.7825 25.2541 77.3343 25.7362 78.9184 25.704C79.4986 25.7079 80.0779 25.6567 80.6484 25.551V25.542C81.9682 25.2306 83.1935 24.6056 84.2204 23.72C84.3204 24.2329 84.4914 24.7293 84.7284 25.195H89.0014C88.5063 23.8124 88.3143 22.3394 88.4384 20.876ZM83.8624 20.216C83.5704 20.8335 83.1104 21.3564 82.5351 21.7248C81.9599 22.0931 81.2925 22.2921 80.6094 22.299V22.305C80.2869 22.3696 79.9564 22.3845 79.6294 22.349C79.1747 22.3703 78.7232 22.2624 78.3272 22.0376C77.9313 21.8128 77.6072 21.4805 77.3924 21.079C77.2405 20.7669 77.17 20.4214 77.1875 20.0747C77.205 19.7279 77.3099 19.3913 77.4924 19.096C78.1024 18.029 79.1704 17.826 80.6454 17.521V17.516C81.1482 17.453 81.6455 17.3527 82.1334 17.216C82.8424 17.1045 83.5089 16.8063 84.0644 16.352C84.1204 17.6432 84.0527 18.9367 83.8624 20.215V20.216Z" fill="white"/>
    <path d="M64.0239 14.484C62.6509 14.23 61.0749 14.179 60.2619 13.265C60.1027 13.0476 60.0045 12.7916 59.9774 12.5235C59.9503 12.2553 59.9954 11.9848 60.1079 11.74C60.4548 11.216 60.9486 10.8061 61.5275 10.5617C62.1064 10.3173 62.7445 10.2492 63.3619 10.366C63.9199 10.3491 64.471 10.4937 64.9488 10.7823C65.4267 11.0709 65.8111 11.4913 66.0559 11.993C66.2353 12.4124 66.3385 12.8604 66.3609 13.316H70.1249C70.1582 11.8541 69.6284 10.4352 68.6449 9.35299C67.6539 8.49164 66.4807 7.8658 65.2133 7.52238C63.946 7.17895 62.6173 7.12686 61.3269 7.36999C59.4959 7.62399 57.0559 8.69099 56.2409 11.082C55.8925 12.0047 55.8373 13.0125 56.0831 13.9677C56.3288 14.9229 56.8634 15.779 57.6139 16.419C59.3429 17.742 62.5959 18.098 63.9189 18.404C65.4429 18.704 66.2069 18.912 66.4599 19.775C66.5476 20.0554 66.5708 20.3519 66.5277 20.6425C66.4846 20.9331 66.3763 21.2102 66.2109 21.453C65.2439 22.723 63.2619 22.826 61.6849 22.368C60.3629 21.963 59.8029 20.893 59.5499 19.468H55.5859C55.5969 20.6529 55.9692 21.8062 56.6529 22.774C57.171 23.556 57.8532 24.2158 58.6521 24.7075C59.4509 25.1992 60.3474 25.5109 61.2789 25.621C63.4367 26.0509 65.6748 25.8015 67.6849 24.907C68.4926 24.4178 69.1998 23.7794 69.7689 23.026C70.3407 22.1772 70.6669 21.187 70.7116 20.1646C70.7562 19.1422 70.5176 18.1273 70.0219 17.232C68.9039 15.298 66.3629 14.891 64.0239 14.484Z" fill="white"/>
    <path d="M50.9034 9.757C49.98 8.77715 48.8283 8.04129 47.5512 7.61516C46.274 7.18903 44.9112 7.08591 43.5844 7.315C42.4155 7.49888 41.3024 7.94126 40.3262 8.60989C39.35 9.27852 38.5353 10.1566 37.9414 11.18C37.2835 12.3472 36.8357 13.6209 36.6184 14.943C36.2114 18.043 37.0764 23.229 42.5184 25.263C43.8748 25.7493 45.3294 25.897 46.7558 25.6932C48.1823 25.4895 49.5374 24.9405 50.7034 24.094C52.1802 22.9022 53.1885 21.2269 53.5504 19.364H49.0234C48.8323 20.175 48.3649 20.8941 47.7014 21.398C46.9747 21.8689 46.1198 22.1026 45.2546 22.0668C44.3894 22.031 43.5567 21.7274 42.8714 21.198C41.4984 20.181 41.0424 18.505 40.9904 16.114C40.9904 14.844 41.3464 12.814 42.4134 11.844C42.9524 11.385 43.5988 11.0696 44.2923 10.9273C44.9859 10.785 45.7042 10.8203 46.3804 11.03C47.1168 11.2861 47.7538 11.7677 48.201 12.4064C48.6482 13.0451 48.8827 13.8084 48.8714 14.588H42.4644V17.788H53.5514C53.6066 16.6606 53.504 15.531 53.2464 14.432C52.8221 12.7191 52.0218 11.1221 50.9034 9.757Z" fill="white"/>
    <path d="M21.9093 26.2C14.7043 23.713 13.3703 17.047 15.1673 12.38C15.645 11.234 16.3714 10.2083 17.2939 9.37734C18.2164 8.54633 19.3121 7.93068 20.5016 7.57489C21.6912 7.2191 22.945 7.13207 24.1723 7.32008C25.3996 7.50809 26.5698 7.96644 27.5983 8.66201C31.9593 11.789 31.4983 17.788 31.4983 17.788H20.3193V14.588H26.8053C26.8434 14.1408 26.7826 13.6907 26.627 13.2696C26.4715 12.8486 26.2251 12.467 25.9053 12.152C25.3076 11.4896 24.5024 11.0502 23.622 10.9059C22.7415 10.7616 21.8382 10.921 21.0603 11.358C19.8033 12.024 18.1893 14.793 19.1373 18.766C20.0373 21.783 22.8633 22.981 25.4073 22.98C29.1963 22.98 32.0653 20.342 32.0703 16.022C32.0751 12.2639 30.7569 8.62397 28.3467 5.74045C25.9365 2.85693 22.5882 0.913824 18.8888 0.251797C15.1895 -0.41023 11.3751 0.251074 8.11449 2.11977C4.85387 3.98847 2.3551 6.94529 1.05625 10.4718C-0.242594 13.9984 -0.25862 17.8696 1.01099 21.4068C2.28059 24.944 4.7548 27.9214 7.99983 29.8171C11.2449 31.7127 15.0536 32.4056 18.7583 31.7742C22.4631 31.1428 25.8273 29.2275 28.2613 26.364C26.1803 26.9853 23.9555 26.9279 21.9093 26.2ZM7.7503 18.013C7.38922 18.0136 7.03608 17.9071 6.73557 17.7069C6.43505 17.5067 6.20067 17.2219 6.06208 16.8885C5.92349 16.5551 5.88692 16.188 5.957 15.8338C6.02708 15.4796 6.20066 15.1541 6.45577 14.8986C6.71088 14.6431 7.03606 14.469 7.39015 14.3983C7.74425 14.3276 8.11135 14.3636 8.445 14.5016C8.77865 14.6397 9.06386 14.8736 9.26452 15.1738C9.46519 15.474 9.5723 15.8269 9.5723 16.188C9.5723 16.6715 9.38044 17.1353 9.03883 17.4774C8.69723 17.8196 8.2338 18.0122 7.7503 18.013Z" fill="white"/>
</svg>
