<svg width="222" height="12" viewBox="0 0 222 12" fill="none" xmlns="http://www.w3.org/2000/svg">
    <path d="M7.21588 6.128C7.26675 6.05832 7.29417 5.97427 7.29417 5.888C7.29417 5.80172 7.26675 5.71768 7.21588 5.648L5.21587 2.496C5.17787 2.41892 5.12152 2.35235 5.05177 2.30214C4.98203 2.25192 4.90103 2.2196 4.81587 2.208H3.03988C2.86387 2.208 2.79988 2.352 2.87987 2.508L4.20787 4.896H0.307875C0.268254 4.89518 0.228877 4.90238 0.19211 4.91717C0.155343 4.93196 0.121945 4.95402 0.0939231 4.98205C0.0659011 5.01007 0.0438334 5.04347 0.0290463 5.08023C0.0142592 5.117 0.00705783 5.15638 0.00787502 5.196V6.58C0.00705783 6.61962 0.0142592 6.659 0.0290463 6.69576C0.0438334 6.73253 0.0659011 6.76593 0.0939231 6.79395C0.121945 6.82197 0.155343 6.84404 0.19211 6.85883C0.228877 6.87361 0.268254 6.88082 0.307875 6.88H4.20787L2.89587 9.264C2.81588 9.424 2.87988 9.564 3.05588 9.564H4.83187C4.91703 9.5524 4.99803 9.52007 5.06777 9.46986C5.13752 9.41964 5.19387 9.35308 5.23187 9.276L7.21588 6.128ZM20.9279 2.016V0.623999C20.9287 0.584378 20.9215 0.545001 20.9067 0.508234C20.8919 0.471467 20.8699 0.438069 20.8418 0.410047C20.8138 0.382025 20.7804 0.359957 20.7436 0.34517C20.7069 0.330383 20.6675 0.323181 20.6279 0.323998H13.3919C13.3523 0.323181 13.3129 0.330383 13.2761 0.34517C13.2393 0.359957 13.2059 0.382025 13.1779 0.410047C13.1499 0.438069 13.1278 0.471467 13.113 0.508234C13.0983 0.545001 13.0911 0.584378 13.0919 0.623999V2.016C13.0911 2.05562 13.0983 2.095 13.113 2.13176C13.1278 2.16853 13.1499 2.20193 13.1779 2.22995C13.2059 2.25797 13.2393 2.28004 13.2761 2.29483C13.3129 2.30961 13.3523 2.31682 13.3919 2.316H15.9359V11.38C15.9351 11.4196 15.9423 11.459 15.957 11.4958C15.9718 11.5325 15.9939 11.5659 16.0219 11.594C16.0499 11.622 16.0833 11.644 16.1201 11.6588C16.1569 11.6736 16.1963 11.6808 16.2359 11.68H17.7879C17.8275 11.6808 17.8669 11.6736 17.9036 11.6588C17.9404 11.644 17.9738 11.622 18.0018 11.594C18.0299 11.5659 18.0519 11.5325 18.0667 11.4958C18.0815 11.459 18.0887 11.4196 18.0879 11.38V2.32H20.6159C20.6568 2.32254 20.6979 2.31648 20.7363 2.3022C20.7748 2.28793 20.8099 2.26577 20.8392 2.23713C20.8686 2.2085 20.8917 2.17403 20.907 2.13595C20.9222 2.09786 20.9293 2.057 20.9279 2.016ZM30.2079 11.38V0.623999C30.2087 0.584378 30.2015 0.545001 30.1867 0.508234C30.1719 0.471467 30.1499 0.438069 30.1218 0.410047C30.0938 0.382025 30.0604 0.359957 30.0236 0.34517C29.9869 0.330383 29.9475 0.323181 29.9079 0.323998H28.3519C28.3123 0.323181 28.2729 0.330383 28.2361 0.34517C28.1993 0.359957 28.1659 0.382025 28.1379 0.410047C28.1099 0.438069 28.0878 0.471467 28.073 0.508234C28.0583 0.545001 28.0511 0.584378 28.0519 0.623999V4.88H24.5279V0.623999C24.5287 0.584378 24.5215 0.545001 24.5067 0.508234C24.4919 0.471467 24.4699 0.438069 24.4418 0.410047C24.4138 0.382025 24.3804 0.359957 24.3436 0.34517C24.3069 0.330383 24.2675 0.323181 24.2279 0.323998H22.6679C22.6283 0.323181 22.5889 0.330383 22.5521 0.34517C22.5153 0.359957 22.4819 0.382025 22.4539 0.410047C22.4259 0.438069 22.4038 0.471467 22.389 0.508234C22.3743 0.545001 22.3671 0.584378 22.3679 0.623999V11.38C22.3671 11.4196 22.3743 11.459 22.389 11.4958C22.4038 11.5325 22.4259 11.5659 22.4539 11.594C22.4819 11.622 22.5153 11.644 22.5521 11.6588C22.5889 11.6736 22.6283 11.6808 22.6679 11.68H24.2199C24.2595 11.6808 24.2989 11.6736 24.3356 11.6588C24.3724 11.644 24.4058 11.622 24.4338 11.594C24.4618 11.5659 24.4839 11.5325 24.4987 11.4958C24.5135 11.459 24.5207 11.4196 24.5199 11.38V6.88H28.0399V11.38C28.0391 11.4196 28.0463 11.459 28.061 11.4958C28.0758 11.5325 28.0979 11.5659 28.1259 11.594C28.1539 11.622 28.1873 11.644 28.2241 11.6588C28.2609 11.6736 28.3003 11.6808 28.3399 11.68H29.8919C29.9328 11.6831 29.9739 11.6776 30.0126 11.6638C30.0513 11.65 30.0866 11.6283 30.1164 11.6C30.1461 11.5718 30.1697 11.5376 30.1854 11.4997C30.2012 11.4618 30.2088 11.421 30.2079 11.38ZM38.6079 11.38V9.98C38.6087 9.94038 38.6015 9.901 38.5867 9.86423C38.5719 9.82747 38.5498 9.79407 38.5218 9.76605C38.4938 9.73802 38.4604 9.71596 38.4236 9.70117C38.3869 9.68638 38.3475 9.67918 38.3079 9.68H34.2879V6.88H37.9879C38.0275 6.88082 38.0669 6.87361 38.1036 6.85883C38.1404 6.84404 38.1738 6.82197 38.2018 6.79395C38.2298 6.76593 38.2519 6.73253 38.2667 6.69576C38.2815 6.659 38.2887 6.61962 38.2879 6.58V5.18C38.2887 5.14038 38.2815 5.101 38.2667 5.06423C38.2519 5.02747 38.2298 4.99407 38.2018 4.96605C38.1738 4.93802 38.1404 4.91596 38.1036 4.90117C38.0669 4.88638 38.0275 4.87918 37.9879 4.88H34.2879V2.32H38.3039C38.3435 2.32082 38.3829 2.31361 38.4196 2.29883C38.4564 2.28404 38.4898 2.26197 38.5178 2.23395C38.5458 2.20593 38.5679 2.17253 38.5827 2.13576C38.5975 2.099 38.6047 2.05962 38.6039 2.02V0.627998C38.6047 0.588378 38.5975 0.549001 38.5827 0.512234C38.5679 0.475467 38.5458 0.442068 38.5178 0.414046C38.4898 0.386024 38.4564 0.363957 38.4196 0.34917C38.3829 0.334383 38.3435 0.327181 38.3039 0.327998H32.4319C32.3923 0.327181 32.3529 0.334383 32.3161 0.34917C32.2793 0.363957 32.2459 0.386024 32.2179 0.414046C32.1899 0.442068 32.1678 0.475467 32.153 0.512234C32.1383 0.549001 32.1311 0.588378 32.1319 0.627998V11.38C32.1311 11.4196 32.1383 11.459 32.153 11.4958C32.1678 11.5325 32.1899 11.5659 32.2179 11.594C32.2459 11.622 32.2793 11.644 32.3161 11.6588C32.3529 11.6736 32.3923 11.6808 32.4319 11.68H38.3039C38.3438 11.6814 38.3836 11.6746 38.4209 11.66C38.4581 11.6455 38.492 11.6235 38.5204 11.5954C38.5489 11.5674 38.5713 11.5338 38.5864 11.4967C38.6014 11.4597 38.6087 11.42 38.6079 11.38ZM51.1679 11.38V9.98C51.1687 9.94038 51.1615 9.901 51.1467 9.86423C51.1319 9.82747 51.1098 9.79407 51.0818 9.76605C51.0538 9.73802 51.0204 9.71596 50.9836 9.70117C50.9469 9.68638 50.9075 9.67918 50.8679 9.68H46.8479V6.88H50.5479C50.5875 6.88082 50.6269 6.87361 50.6636 6.85883C50.7004 6.84404 50.7338 6.82197 50.7618 6.79395C50.7898 6.76593 50.8119 6.73253 50.8267 6.69576C50.8415 6.659 50.8487 6.61962 50.8479 6.58V5.18C50.8487 5.14038 50.8415 5.101 50.8267 5.06423C50.8119 5.02747 50.7898 4.99407 50.7618 4.96605C50.7338 4.93802 50.7004 4.91596 50.6636 4.90117C50.6269 4.88638 50.5875 4.87918 50.5479 4.88H46.8479V2.32H50.8679C50.9075 2.32082 50.9469 2.31361 50.9836 2.29883C51.0204 2.28404 51.0538 2.26197 51.0818 2.23395C51.1098 2.20593 51.1319 2.17253 51.1467 2.13576C51.1615 2.099 51.1687 2.05962 51.1679 2.02V0.627998C51.1687 0.588378 51.1615 0.549001 51.1467 0.512234C51.1319 0.475467 51.1098 0.442068 51.0818 0.414046C51.0538 0.386024 51.0204 0.363957 50.9836 0.34917C50.9469 0.334383 50.9075 0.327181 50.8679 0.327998H44.9919C44.9523 0.327181 44.9129 0.334383 44.8761 0.34917C44.8393 0.363957 44.8059 0.386024 44.7779 0.414046C44.7499 0.442068 44.7278 0.475467 44.713 0.512234C44.6983 0.549001 44.6911 0.588378 44.6919 0.627998V11.38C44.6911 11.4196 44.6983 11.459 44.713 11.4958C44.7278 11.5325 44.7499 11.5659 44.7779 11.594C44.8059 11.622 44.8393 11.644 44.8761 11.6588C44.9129 11.6736 44.9523 11.6808 44.9919 11.68H50.8679C50.9075 11.6808 50.9469 11.6736 50.9836 11.6588C51.0204 11.644 51.0538 11.622 51.0818 11.594C51.1098 11.5659 51.1319 11.5325 51.1467 11.4958C51.1615 11.459 51.1687 11.4196 51.1679 11.38ZM60.5279 7.52V0.619998C60.5287 0.580377 60.5215 0.541 60.5067 0.504233C60.4919 0.467466 60.4698 0.434069 60.4418 0.406047C60.4138 0.378025 60.3804 0.355957 60.3436 0.341169C60.3069 0.326382 60.2675 0.319182 60.2279 0.319999H58.6679C58.6283 0.319182 58.5889 0.326382 58.5521 0.341169C58.5153 0.355957 58.4819 0.378025 58.4539 0.406047C58.4259 0.434069 58.4038 0.467466 58.389 0.504233C58.3743 0.541 58.3671 0.580377 58.3679 0.619998V7.52C58.3679 8.848 57.9679 9.84 56.6079 9.84C55.2479 9.84 54.8479 8.848 54.8479 7.52V0.619998C54.8487 0.580377 54.8415 0.541 54.8267 0.504233C54.8119 0.467466 54.7898 0.434069 54.7618 0.406047C54.7338 0.378025 54.7004 0.355957 54.6636 0.341169C54.6269 0.326382 54.5875 0.319182 54.5479 0.319999H52.9919C52.9523 0.319182 52.9129 0.326382 52.8761 0.341169C52.8393 0.355957 52.8059 0.378025 52.7779 0.406047C52.7499 0.434069 52.7278 0.467466 52.713 0.504233C52.6983 0.541 52.6911 0.580377 52.6919 0.619998V7.52C52.6879 10.58 54.1119 11.84 56.6079 11.84C59.1039 11.84 60.5279 10.58 60.5279 7.52ZM70.2559 11.36L67.6799 7.04C69.1199 6.672 69.9679 5.648 69.9679 3.76C69.9679 1.312 68.5919 0.319999 66.2879 0.319999H62.7519C62.7123 0.319182 62.6729 0.326382 62.6361 0.341169C62.5993 0.355957 62.5659 0.378025 62.5379 0.406047C62.5099 0.434069 62.4878 0.467466 62.473 0.504233C62.4583 0.541 62.4511 0.580377 62.4519 0.619998V11.38C62.4511 11.4196 62.4583 11.459 62.473 11.4958C62.4878 11.5325 62.5099 11.5659 62.5379 11.594C62.5659 11.622 62.5993 11.644 62.6361 11.6588C62.6729 11.6736 62.7123 11.6808 62.7519 11.68H64.3039C64.3435 11.6808 64.3829 11.6736 64.4196 11.6588C64.4564 11.644 64.4898 11.622 64.5178 11.594C64.5459 11.5659 64.5679 11.5325 64.5827 11.4958C64.5975 11.459 64.6047 11.4196 64.6039 11.38V7.2H65.3879L67.8679 11.38C67.9679 11.524 68.0759 11.68 68.2519 11.68H70.0759C70.1147 11.6841 70.1539 11.6767 70.1885 11.6588C70.2232 11.6408 70.2519 11.6132 70.271 11.5791C70.2901 11.5451 70.2989 11.5062 70.2962 11.4673C70.2935 11.4284 70.2795 11.3911 70.2559 11.36ZM67.8079 3.76C67.8079 4.928 67.1519 5.28 65.9999 5.28H64.6079V2.24H66.0479C67.1999 2.24 67.8079 2.592 67.8079 3.76ZM79.4079 7.68V4.32C79.4079 1.664 78.0479 0.159998 75.4879 0.159998C72.9279 0.159998 71.5679 1.66 71.5679 4.32V7.68C71.5679 10.336 72.9279 11.84 75.4879 11.84C78.0479 11.84 79.4079 10.336 79.4079 7.68ZM77.2479 7.52C77.2479 8.848 76.8479 9.84 75.4879 9.84C74.1279 9.84 73.7279 8.848 73.7279 7.52V4.48C73.7279 3.152 74.1279 2.16 75.4879 2.16C76.8479 2.16 77.2479 3.152 77.2479 4.48V7.52ZM88.8479 3.76C88.8479 1.216 87.3919 0.319999 85.0879 0.319999H81.6319C81.5923 0.319182 81.5529 0.326382 81.5161 0.341169C81.4793 0.355957 81.4459 0.378025 81.4179 0.406047C81.3899 0.434069 81.3678 0.467466 81.3531 0.504233C81.3383 0.541 81.3311 0.580377 81.3319 0.619998V11.38C81.3311 11.4196 81.3383 11.459 81.3531 11.4958C81.3678 11.5325 81.3899 11.5659 81.4179 11.594C81.4459 11.622 81.4793 11.644 81.5161 11.6588C81.5529 11.6736 81.5923 11.6808 81.6319 11.68H83.1839C83.2235 11.6808 83.2629 11.6736 83.2996 11.6588C83.3364 11.644 83.3698 11.622 83.3978 11.594C83.4258 11.5659 83.4479 11.5325 83.4627 11.4958C83.4775 11.459 83.4847 11.4196 83.4839 11.38V7.2H85.0839C87.3919 7.2 88.8479 6.304 88.8479 3.76ZM86.6879 3.76C86.6879 4.88 86.0959 5.28 84.9279 5.28H83.4879V2.24H84.9279C86.0959 2.24 86.6879 2.64 86.6879 3.76ZM97.0879 11.38V9.98C97.0887 9.94038 97.0815 9.901 97.0667 9.86423C97.0519 9.82747 97.0299 9.79407 97.0018 9.76605C96.9738 9.73802 96.9404 9.71596 96.9036 9.70117C96.8669 9.68638 96.8275 9.67918 96.7879 9.68H92.7679V6.88H96.4679C96.5075 6.88082 96.5469 6.87361 96.5836 6.85883C96.6204 6.84404 96.6538 6.82197 96.6818 6.79395C96.7099 6.76593 96.7319 6.73253 96.7467 6.69576C96.7615 6.659 96.7687 6.61962 96.7679 6.58V5.18C96.7687 5.14038 96.7615 5.101 96.7467 5.06423C96.7319 5.02747 96.7099 4.99407 96.6818 4.96605C96.6538 4.93802 96.6204 4.91596 96.5836 4.90117C96.5469 4.88638 96.5075 4.87918 96.4679 4.88H92.7679V2.32H96.7839C96.8235 2.32082 96.8629 2.31361 96.8996 2.29883C96.9364 2.28404 96.9698 2.26197 96.9978 2.23395C97.0258 2.20593 97.0479 2.17253 97.0627 2.13576C97.0775 2.099 97.0847 2.05962 97.0839 2.02V0.627998C97.0847 0.588378 97.0775 0.549001 97.0627 0.512234C97.0479 0.475467 97.0258 0.442068 96.9978 0.414046C96.9698 0.386024 96.9364 0.363957 96.8996 0.34917C96.8629 0.334383 96.8235 0.327181 96.7839 0.327998H90.9119C90.8723 0.327181 90.8329 0.334383 90.7961 0.34917C90.7593 0.363957 90.7259 0.386024 90.6979 0.414046C90.6699 0.442068 90.6478 0.475467 90.633 0.512234C90.6183 0.549001 90.6111 0.588378 90.6119 0.627998V11.38C90.6111 11.4196 90.6183 11.459 90.633 11.4958C90.6478 11.5325 90.6699 11.5659 90.6979 11.594C90.7259 11.622 90.7593 11.644 90.7961 11.6588C90.8329 11.6736 90.8723 11.6808 90.9119 11.68H96.7839C96.8238 11.6814 96.8636 11.6746 96.9009 11.66C96.9381 11.6455 96.972 11.6235 97.0005 11.5954C97.0289 11.5674 97.0513 11.5338 97.0664 11.4967C97.0814 11.4597 97.0887 11.42 97.0879 11.38ZM107.152 11.36L103.984 0.623999C103.964 0.540464 103.917 0.465787 103.851 0.411547C103.784 0.357306 103.702 0.326533 103.616 0.323998H101.516C101.43 0.326533 101.348 0.357306 101.281 0.411547C101.214 0.465787 101.168 0.540464 101.148 0.623999L97.9839 11.36C97.9691 11.396 97.9636 11.4351 97.9679 11.4737C97.9722 11.5124 97.9861 11.5494 98.0084 11.5812C98.0307 11.6131 98.0607 11.6388 98.0955 11.6561C98.1304 11.6734 98.169 11.6816 98.2079 11.68H99.9519C100.034 11.6764 100.112 11.6446 100.173 11.5899C100.235 11.5352 100.275 11.4611 100.288 11.38L100.736 9.764H104.4L104.848 11.38C104.861 11.4611 104.901 11.5352 104.962 11.5899C105.024 11.6446 105.102 11.6764 105.184 11.68H106.928C106.967 11.6816 107.005 11.6734 107.04 11.6561C107.075 11.6388 107.105 11.6131 107.127 11.5812C107.15 11.5494 107.164 11.5124 107.168 11.4737C107.172 11.4351 107.167 11.396 107.152 11.36ZM103.84 7.76H101.296L102.576 3.152L103.84 7.76ZM116.208 11.38V0.623999C116.209 0.584378 116.201 0.545001 116.187 0.508234C116.172 0.471467 116.15 0.438069 116.122 0.410047C116.094 0.382025 116.06 0.359957 116.024 0.34517C115.987 0.330383 115.947 0.323181 115.908 0.323998H114.356C114.316 0.323181 114.277 0.330383 114.24 0.34517C114.203 0.359957 114.17 0.382025 114.142 0.410047C114.114 0.438069 114.092 0.471467 114.077 0.508234C114.062 0.545001 114.055 0.584378 114.056 0.623999V7.104L110.696 0.623999C110.616 0.463999 110.536 0.323998 110.296 0.323998H108.668C108.628 0.323181 108.589 0.330383 108.552 0.34517C108.515 0.359957 108.482 0.382025 108.454 0.410047C108.426 0.438069 108.404 0.471467 108.389 0.508234C108.374 0.545001 108.367 0.584378 108.368 0.623999V11.38C108.367 11.4196 108.374 11.459 108.389 11.4958C108.404 11.5325 108.426 11.5659 108.454 11.594C108.482 11.622 108.515 11.644 108.552 11.6588C108.589 11.6736 108.628 11.6808 108.668 11.68H110.22C110.259 11.6808 110.299 11.6736 110.336 11.6588C110.372 11.644 110.406 11.622 110.434 11.594C110.462 11.5659 110.484 11.5325 110.499 11.4958C110.513 11.459 110.521 11.4196 110.52 11.38V4.9L113.888 11.38C113.917 11.464 113.971 11.5374 114.042 11.5908C114.113 11.6442 114.199 11.6753 114.288 11.68H115.904C115.944 11.6814 115.984 11.6746 116.021 11.66C116.058 11.6455 116.092 11.6235 116.12 11.5954C116.149 11.5674 116.171 11.5338 116.186 11.4967C116.201 11.4597 116.209 11.42 116.208 11.38ZM129.328 8.532V8.052C129.379 7.34879 129.169 6.65144 128.738 6.09347C128.307 5.5355 127.685 5.15613 126.992 5.028L125.632 4.58C125.072 4.388 124.688 4.1 124.688 3.572V3.332C124.688 2.564 125.104 2.164 126.208 2.164C127.098 2.195 127.985 2.2805 128.864 2.42C129.056 2.436 129.164 2.34 129.164 2.164V0.755999C129.164 0.716602 129.156 0.677591 129.141 0.641193C129.126 0.604796 129.104 0.571724 129.076 0.543866C129.048 0.516009 129.015 0.493911 128.979 0.478834C128.942 0.463758 128.903 0.455998 128.864 0.455998C127.977 0.286403 127.078 0.190078 126.176 0.167998C124.176 0.167998 122.528 1.068 122.528 3.336V3.736C122.478 4.37007 122.655 5.0013 123.027 5.51708C123.399 6.03286 123.942 6.39964 124.56 6.552L125.92 7C126.62 7.24 127.168 7.512 127.168 8.216V8.536C127.168 9.464 126.704 9.848 125.488 9.848C124.574 9.79262 123.665 9.67501 122.768 9.496C122.576 9.464 122.448 9.56 122.448 9.736V11.18C122.448 11.2596 122.479 11.3359 122.536 11.3921C122.592 11.4484 122.668 11.48 122.748 11.48C123.69 11.6827 124.649 11.8005 125.612 11.832C128.08 11.84 129.328 11.024 129.328 8.528V8.532ZM138.688 3.764C138.688 1.22 137.232 0.323998 134.928 0.323998H131.468C131.428 0.323181 131.389 0.330383 131.352 0.34517C131.315 0.359957 131.282 0.382025 131.254 0.410047C131.226 0.438069 131.204 0.471467 131.189 0.508234C131.174 0.545001 131.167 0.584378 131.168 0.623999V11.38C131.167 11.4196 131.174 11.459 131.189 11.4958C131.204 11.5325 131.226 11.5659 131.254 11.594C131.282 11.622 131.315 11.644 131.352 11.6588C131.389 11.6736 131.428 11.6808 131.468 11.68H133.02C133.06 11.6808 133.099 11.6736 133.136 11.6588C133.172 11.644 133.206 11.622 133.234 11.594C133.262 11.5659 133.284 11.5325 133.299 11.4958C133.313 11.459 133.321 11.4196 133.32 11.38V7.2H134.92C137.232 7.2 138.688 6.304 138.688 3.76V3.764ZM136.528 3.764C136.528 4.884 135.936 5.284 134.768 5.284H133.328V2.24H134.768C135.936 2.24 136.528 2.64 136.528 3.76V3.764ZM148.112 11.364L144.944 0.627998C144.924 0.544464 144.877 0.469787 144.811 0.415546C144.744 0.361306 144.662 0.330532 144.576 0.327998H142.476C142.39 0.330532 142.307 0.361306 142.241 0.415546C142.174 0.469787 142.128 0.544464 142.108 0.627998L138.944 11.36C138.929 11.396 138.924 11.4351 138.928 11.4737C138.932 11.5124 138.946 11.5494 138.968 11.5812C138.991 11.6131 139.021 11.6388 139.056 11.6561C139.09 11.6734 139.129 11.6816 139.168 11.68H140.912C140.994 11.6764 141.072 11.6446 141.133 11.5899C141.195 11.5352 141.235 11.4611 141.248 11.38L141.696 9.764H145.36L145.808 11.38C145.821 11.4611 145.861 11.5352 145.922 11.5899C145.984 11.6446 146.062 11.6764 146.144 11.68H147.888C147.927 11.6816 147.965 11.6734 148 11.6561C148.035 11.6388 148.065 11.6131 148.087 11.5812C148.11 11.5494 148.124 11.5124 148.128 11.4737C148.132 11.4351 148.127 11.396 148.112 11.36V11.364ZM144.8 7.764H142.256L143.536 3.156L144.8 7.764ZM155.168 11.344V9.904C155.168 9.728 155.056 9.632 154.868 9.648C154.305 9.72983 153.737 9.77791 153.168 9.792C151.712 9.792 151.328 8.848 151.328 7.52V4.48C151.328 3.152 151.728 2.208 153.088 2.208C153.808 2.208 154.848 2.336 154.848 2.336C155.04 2.352 155.168 2.256 155.168 2.08V0.655998C155.17 0.615185 155.163 0.574434 155.149 0.536135C155.135 0.497835 155.113 0.462757 155.085 0.432955C155.057 0.403153 155.024 0.379226 154.986 0.362577C154.949 0.345929 154.909 0.336893 154.868 0.335999C154.282 0.229844 153.688 0.170987 153.092 0.159998C150.532 0.159998 149.172 1.66 149.172 4.32V7.68C149.172 10.336 150.532 11.84 153.092 11.84C153.688 11.829 154.282 11.7702 154.868 11.664C154.909 11.6631 154.949 11.6541 154.986 11.6374C155.024 11.6208 155.057 11.5968 155.085 11.567C155.113 11.5372 155.135 11.5022 155.149 11.4639C155.163 11.4256 155.17 11.3848 155.168 11.344ZM163.248 11.376V9.98C163.249 9.94038 163.241 9.901 163.227 9.86423C163.212 9.82747 163.19 9.79407 163.162 9.76605C163.134 9.73802 163.1 9.71596 163.064 9.70117C163.027 9.68638 162.988 9.67918 162.948 9.68H158.928V6.88H162.628C162.668 6.88082 162.707 6.87361 162.744 6.85883C162.78 6.84404 162.814 6.82197 162.842 6.79395C162.87 6.76593 162.892 6.73253 162.907 6.69576C162.921 6.659 162.929 6.61962 162.928 6.58V5.18C162.929 5.14038 162.921 5.101 162.907 5.06423C162.892 5.02747 162.87 4.99407 162.842 4.96605C162.814 4.93802 162.78 4.91596 162.744 4.90117C162.707 4.88638 162.668 4.87918 162.628 4.88H158.928V2.32H162.944C162.984 2.32082 163.023 2.31361 163.06 2.29883C163.096 2.28404 163.13 2.26197 163.158 2.23395C163.186 2.20593 163.208 2.17253 163.223 2.13576C163.237 2.099 163.245 2.05962 163.244 2.02V0.627998C163.245 0.588378 163.237 0.549001 163.223 0.512234C163.208 0.475467 163.186 0.442068 163.158 0.414046C163.13 0.386024 163.096 0.363957 163.06 0.34917C163.023 0.334383 162.984 0.327181 162.944 0.327998H157.068C157.028 0.327181 156.989 0.334383 156.952 0.34917C156.915 0.363957 156.882 0.386024 156.854 0.414046C156.826 0.442068 156.804 0.475467 156.789 0.512234C156.774 0.549001 156.767 0.588378 156.768 0.627998V11.38C156.767 11.4196 156.774 11.459 156.789 11.4958C156.804 11.5325 156.826 11.5659 156.854 11.594C156.882 11.622 156.915 11.644 156.952 11.6588C156.989 11.6736 157.028 11.6808 157.068 11.68H162.94C162.98 11.6819 163.02 11.6756 163.058 11.6613C163.096 11.647 163.13 11.6251 163.159 11.5969C163.188 11.5688 163.211 11.535 163.226 11.4977C163.241 11.4604 163.249 11.4203 163.248 11.38V11.376ZM177.792 11.36L174.624 0.623999C174.604 0.540464 174.557 0.465787 174.491 0.411547C174.424 0.357306 174.342 0.326533 174.256 0.323998H172.156C172.07 0.326533 171.987 0.357306 171.921 0.411547C171.854 0.465787 171.808 0.540464 171.788 0.623999L168.624 11.36C168.609 11.396 168.604 11.4351 168.608 11.4737C168.612 11.5124 168.626 11.5494 168.648 11.5812C168.671 11.6131 168.701 11.6388 168.736 11.6561C168.77 11.6734 168.809 11.6816 168.848 11.68H170.592C170.674 11.6764 170.752 11.6446 170.813 11.5899C170.875 11.5352 170.915 11.4611 170.928 11.38L171.376 9.764H175.04L175.488 11.38C175.501 11.4611 175.541 11.5352 175.602 11.5899C175.664 11.6446 175.742 11.6764 175.824 11.68H177.568C177.607 11.6816 177.645 11.6734 177.68 11.6561C177.715 11.6388 177.745 11.6131 177.767 11.5812C177.79 11.5494 177.804 11.5124 177.808 11.4737C177.812 11.4351 177.807 11.396 177.792 11.36ZM174.48 7.76H171.936L173.216 3.152L174.48 7.76ZM186.688 10.96V5.504C186.689 5.46438 186.681 5.425 186.667 5.38823C186.652 5.35147 186.63 5.31807 186.602 5.29005C186.574 5.26202 186.54 5.23996 186.504 5.22517C186.467 5.21038 186.428 5.20318 186.388 5.204H182.916C182.876 5.20318 182.837 5.21038 182.8 5.22517C182.763 5.23996 182.73 5.26202 182.702 5.29005C182.674 5.31807 182.652 5.35147 182.637 5.38823C182.622 5.425 182.615 5.46438 182.616 5.504V6.896C182.615 6.93562 182.622 6.975 182.637 7.01176C182.652 7.04853 182.674 7.08193 182.702 7.10995C182.73 7.13797 182.763 7.16004 182.8 7.17483C182.837 7.18961 182.876 7.19682 182.916 7.196H184.532V9.548C183.985 9.73694 183.411 9.83425 182.832 9.836C181.532 9.836 181.008 8.988 181.008 7.516V4.64C181.008 3.104 181.584 2.16 183.168 2.16C184.138 2.21645 185.101 2.35562 186.048 2.576C186.087 2.58836 186.128 2.59097 186.167 2.58361C186.207 2.57625 186.245 2.55913 186.277 2.53379C186.308 2.50845 186.333 2.47567 186.349 2.43837C186.365 2.40107 186.371 2.3604 186.368 2.32V0.959998C186.369 0.878272 186.338 0.79936 186.282 0.739734C186.226 0.680108 186.149 0.644377 186.068 0.639998C185.109 0.3178 184.103 0.155632 183.092 0.159998C180.308 0.159998 178.852 1.792 178.852 4.64V7.68C178.852 10.352 180.1 11.84 182.772 11.84C184.125 11.8276 185.46 11.5276 186.688 10.96ZM195.088 11.376V9.98C195.089 9.94038 195.081 9.901 195.067 9.86423C195.052 9.82747 195.03 9.79407 195.002 9.76605C194.974 9.73802 194.94 9.71596 194.904 9.70117C194.867 9.68638 194.827 9.67918 194.788 9.68H190.768V6.88H194.468C194.508 6.88082 194.547 6.87361 194.584 6.85883C194.62 6.84404 194.654 6.82197 194.682 6.79395C194.71 6.76593 194.732 6.73253 194.747 6.69576C194.761 6.659 194.769 6.61962 194.768 6.58V5.18C194.769 5.14038 194.761 5.101 194.747 5.06423C194.732 5.02747 194.71 4.99407 194.682 4.96605C194.654 4.93802 194.62 4.91596 194.584 4.90117C194.547 4.88638 194.508 4.87918 194.468 4.88H190.768V2.32H194.784C194.824 2.32082 194.863 2.31361 194.9 2.29883C194.936 2.28404 194.97 2.26197 194.998 2.23395C195.026 2.20593 195.048 2.17253 195.063 2.13576C195.077 2.099 195.085 2.05962 195.084 2.02V0.627998C195.085 0.588378 195.077 0.549001 195.063 0.512234C195.048 0.475467 195.026 0.442068 194.998 0.414046C194.97 0.386024 194.936 0.363957 194.9 0.34917C194.863 0.334383 194.824 0.327181 194.784 0.327998H188.912C188.872 0.327181 188.833 0.334383 188.796 0.34917C188.759 0.363957 188.726 0.386024 188.698 0.414046C188.67 0.442068 188.648 0.475467 188.633 0.512234C188.618 0.549001 188.611 0.588378 188.612 0.627998V11.38C188.611 11.4196 188.618 11.459 188.633 11.4958C188.648 11.5325 188.67 11.5659 188.698 11.594C188.726 11.622 188.759 11.644 188.796 11.6588C188.833 11.6736 188.872 11.6808 188.912 11.68H194.784C194.824 11.6814 194.864 11.6746 194.901 11.66C194.938 11.6455 194.972 11.6235 195 11.5954C195.029 11.5674 195.051 11.5338 195.066 11.4967C195.081 11.4597 195.089 11.42 195.088 11.38V11.376ZM204.528 11.376V0.623999C204.529 0.584378 204.521 0.545001 204.507 0.508234C204.492 0.471467 204.47 0.438069 204.442 0.410047C204.414 0.382025 204.38 0.359957 204.344 0.34517C204.307 0.330383 204.268 0.323181 204.228 0.323998H202.668C202.628 0.323181 202.589 0.330383 202.552 0.34517C202.515 0.359957 202.482 0.382025 202.454 0.410047C202.426 0.438069 202.404 0.471467 202.389 0.508234C202.374 0.545001 202.367 0.584378 202.368 0.623999V7.104L199.008 0.623999C198.928 0.463999 198.848 0.323998 198.608 0.323998H196.992C196.952 0.323181 196.913 0.330383 196.876 0.34517C196.839 0.359957 196.806 0.382025 196.778 0.410047C196.75 0.438069 196.728 0.471467 196.713 0.508234C196.698 0.545001 196.691 0.584378 196.692 0.623999V11.38C196.691 11.4196 196.698 11.459 196.713 11.4958C196.728 11.5325 196.75 11.5659 196.778 11.594C196.806 11.622 196.839 11.644 196.876 11.6588C196.913 11.6736 196.952 11.6808 196.992 11.68H198.544C198.584 11.6808 198.623 11.6736 198.66 11.6588C198.696 11.644 198.73 11.622 198.758 11.594C198.786 11.5659 198.808 11.5325 198.823 11.4958C198.837 11.459 198.845 11.4196 198.844 11.38V4.9L202.208 11.38C202.237 11.464 202.291 11.5374 202.362 11.5908C202.433 11.6442 202.519 11.6753 202.608 11.68H204.224C204.264 11.6814 204.304 11.6746 204.341 11.66C204.378 11.6455 204.412 11.6235 204.44 11.5954C204.469 11.5674 204.491 11.5338 204.506 11.4967C204.521 11.4597 204.529 11.42 204.528 11.38V11.376ZM212.448 11.344V9.904C212.448 9.728 212.336 9.632 212.148 9.648C211.585 9.72983 211.017 9.77791 210.448 9.792C208.992 9.792 208.608 8.848 208.608 7.52V4.48C208.608 3.152 209.008 2.208 210.368 2.208C211.088 2.208 212.128 2.336 212.128 2.336C212.32 2.352 212.448 2.256 212.448 2.08V0.655998C212.45 0.615185 212.443 0.574434 212.429 0.536135C212.415 0.497835 212.393 0.462757 212.365 0.432955C212.337 0.403153 212.304 0.379226 212.266 0.362577C212.229 0.345929 212.189 0.336893 212.148 0.335999C211.562 0.229844 210.968 0.170987 210.372 0.159998C207.812 0.159998 206.452 1.66 206.452 4.32V7.68C206.452 10.336 207.812 11.84 210.372 11.84C210.968 11.829 211.562 11.7702 212.148 11.664C212.189 11.6631 212.229 11.6541 212.266 11.6374C212.304 11.6208 212.337 11.5968 212.365 11.567C212.393 11.5372 212.415 11.5022 212.429 11.4639C212.443 11.4256 212.45 11.3848 212.448 11.344ZM221.984 0.655998C222.001 0.619216 222.008 0.578706 222.005 0.538332C222.002 0.497958 221.988 0.459069 221.966 0.425373C221.943 0.391677 221.913 0.3643 221.877 0.345853C221.841 0.327406 221.8 0.318505 221.76 0.319999H219.92C219.744 0.319999 219.68 0.463998 219.62 0.619998L217.7 5.52L215.764 0.619998C215.7 0.459998 215.636 0.319999 215.464 0.319999H213.624C213.583 0.318505 213.543 0.327406 213.507 0.345853C213.471 0.3643 213.44 0.391677 213.418 0.425373C213.395 0.459069 213.382 0.497958 213.379 0.538332C213.376 0.578706 213.383 0.619216 213.4 0.655998L216.608 8.08V11.38C216.607 11.4196 216.614 11.459 216.629 11.4958C216.644 11.5325 216.666 11.5659 216.694 11.594C216.722 11.622 216.755 11.644 216.792 11.6588C216.829 11.6736 216.868 11.6808 216.908 11.68H218.468C218.508 11.6808 218.547 11.6736 218.584 11.6588C218.62 11.644 218.654 11.622 218.682 11.594C218.71 11.5659 218.732 11.5325 218.747 11.4958C218.761 11.459 218.769 11.4196 218.768 11.38V8.08L221.984 0.655998Z" fill="white"/>
</svg>
