<svg width="40" height="41" viewBox="0 0 40 41" fill="none" xmlns="http://www.w3.org/2000/svg">
    <path d="M36 39.2547L30.875 34.1714C30.375 34.4769 29.8403 34.7061 29.2708 34.8589C28.7014 35.0117 28.1111 35.0881 27.5 35.0881C25.6667 35.0881 24.0972 34.4353 22.7917 33.1297C21.4861 31.8242 20.8333 30.2547 20.8333 28.4214C20.8333 26.5881 21.4861 25.0186 22.7917 23.7131C24.0972 22.4075 25.6667 21.7547 27.5 21.7547C29.3333 21.7547 30.9028 22.4075 32.2083 23.7131C33.5139 25.0186 34.1667 26.5881 34.1667 28.4214C34.1667 29.0603 34.0833 29.6644 33.9167 30.2339C33.75 30.8033 33.5139 31.3381 33.2083 31.8381L38.3333 36.9214L36 39.2547ZM9.16667 35.0881C7.33333 35.0881 5.76389 34.4353 4.45833 33.1297C3.15278 31.8242 2.5 30.2547 2.5 28.4214C2.5 26.5881 3.15278 25.0186 4.45833 23.7131C5.76389 22.4075 7.33333 21.7547 9.16667 21.7547C11 21.7547 12.5694 22.4075 13.875 23.7131C15.1806 25.0186 15.8333 26.5881 15.8333 28.4214C15.8333 30.2547 15.1806 31.8242 13.875 33.1297C12.5694 34.4353 11 35.0881 9.16667 35.0881ZM9.16667 31.7547C10.0833 31.7547 10.8681 31.4283 11.5208 30.7756C12.1736 30.1228 12.5 29.3381 12.5 28.4214C12.5 27.5047 12.1736 26.72 11.5208 26.0672C10.8681 25.4144 10.0833 25.0881 9.16667 25.0881C8.25 25.0881 7.46528 25.4144 6.8125 26.0672C6.15972 26.72 5.83333 27.5047 5.83333 28.4214C5.83333 29.3381 6.15972 30.1228 6.8125 30.7756C7.46528 31.4283 8.25 31.7547 9.16667 31.7547ZM27.5 31.7547C28.4167 31.7547 29.2014 31.4283 29.8542 30.7756C30.5069 30.1228 30.8333 29.3381 30.8333 28.4214C30.8333 27.5047 30.5069 26.72 29.8542 26.0672C29.2014 25.4144 28.4167 25.0881 27.5 25.0881C26.5833 25.0881 25.7986 25.4144 25.1458 26.0672C24.4931 26.72 24.1667 27.5047 24.1667 28.4214C24.1667 29.3381 24.4931 30.1228 25.1458 30.7756C25.7986 31.4283 26.5833 31.7547 27.5 31.7547ZM9.16667 16.7547C7.33333 16.7547 5.76389 16.1019 4.45833 14.7964C3.15278 13.4908 2.5 11.9214 2.5 10.0881C2.5 8.25472 3.15278 6.68528 4.45833 5.37972C5.76389 4.07416 7.33333 3.42139 9.16667 3.42139C11 3.42139 12.5694 4.07416 13.875 5.37972C15.1806 6.68528 15.8333 8.25472 15.8333 10.0881C15.8333 11.9214 15.1806 13.4908 13.875 14.7964C12.5694 16.1019 11 16.7547 9.16667 16.7547ZM27.5 16.7547C25.6667 16.7547 24.0972 16.1019 22.7917 14.7964C21.4861 13.4908 20.8333 11.9214 20.8333 10.0881C20.8333 8.25472 21.4861 6.68528 22.7917 5.37972C24.0972 4.07416 25.6667 3.42139 27.5 3.42139C29.3333 3.42139 30.9028 4.07416 32.2083 5.37972C33.5139 6.68528 34.1667 8.25472 34.1667 10.0881C34.1667 11.9214 33.5139 13.4908 32.2083 14.7964C30.9028 16.1019 29.3333 16.7547 27.5 16.7547ZM9.16667 13.4214C10.0833 13.4214 10.8681 13.095 11.5208 12.4422C12.1736 11.7894 12.5 11.0047 12.5 10.0881C12.5 9.17139 12.1736 8.38666 11.5208 7.73389C10.8681 7.08111 10.0833 6.75472 9.16667 6.75472C8.25 6.75472 7.46528 7.08111 6.8125 7.73389C6.15972 8.38666 5.83333 9.17139 5.83333 10.0881C5.83333 11.0047 6.15972 11.7894 6.8125 12.4422C7.46528 13.095 8.25 13.4214 9.16667 13.4214ZM27.5 13.4214C28.4167 13.4214 29.2014 13.095 29.8542 12.4422C30.5069 11.7894 30.8333 11.0047 30.8333 10.0881C30.8333 9.17139 30.5069 8.38666 29.8542 7.73389C29.2014 7.08111 28.4167 6.75472 27.5 6.75472C26.5833 6.75472 25.7986 7.08111 25.1458 7.73389C24.4931 8.38666 24.1667 9.17139 24.1667 10.0881C24.1667 11.0047 24.4931 11.7894 25.1458 12.4422C25.7986 13.095 26.5833 13.4214 27.5 13.4214Z" fill="#FBAB18"/>
</svg>
