<svg width="49" height="48" viewBox="0 0 49 48" fill="none" xmlns="http://www.w3.org/2000/svg">
    <path d="M12.5781 42C10.3781 42 8.49479 41.2167 6.92813 39.65C5.36146 38.0833 4.57812 36.2 4.57812 34C4.57812 31.8 5.36146 29.9167 6.92813 28.35C8.49479 26.7833 10.3781 26 12.5781 26C14.7781 26 16.6615 26.7833 18.2281 28.35C19.7948 29.9167 20.5781 31.8 20.5781 34C20.5781 36.2 19.7948 38.0833 18.2281 39.65C16.6615 41.2167 14.7781 42 12.5781 42ZM36.5781 42C34.3781 42 32.4948 41.2167 30.9281 39.65C29.3615 38.0833 28.5781 36.2 28.5781 34C28.5781 31.8 29.3615 29.9167 30.9281 28.35C32.4948 26.7833 34.3781 26 36.5781 26C38.7781 26 40.6615 26.7833 42.2281 28.35C43.7948 29.9167 44.5781 31.8 44.5781 34C44.5781 36.2 43.7948 38.0833 42.2281 39.65C40.6615 41.2167 38.7781 42 36.5781 42ZM12.5781 38C13.6781 38 14.6198 37.6083 15.4031 36.825C16.1865 36.0417 16.5781 35.1 16.5781 34C16.5781 32.9 16.1865 31.9583 15.4031 31.175C14.6198 30.3917 13.6781 30 12.5781 30C11.4781 30 10.5365 30.3917 9.75313 31.175C8.96979 31.9583 8.57812 32.9 8.57812 34C8.57812 35.1 8.96979 36.0417 9.75313 36.825C10.5365 37.6083 11.4781 38 12.5781 38ZM36.5781 38C37.6781 38 38.6198 37.6083 39.4031 36.825C40.1865 36.0417 40.5781 35.1 40.5781 34C40.5781 32.9 40.1865 31.9583 39.4031 31.175C38.6198 30.3917 37.6781 30 36.5781 30C35.4781 30 34.5365 30.3917 33.7531 31.175C32.9698 31.9583 32.5781 32.9 32.5781 34C32.5781 35.1 32.9698 36.0417 33.7531 36.825C34.5365 37.6083 35.4781 38 36.5781 38ZM24.5781 22C22.3781 22 20.4948 21.2167 18.9281 19.65C17.3615 18.0833 16.5781 16.2 16.5781 14C16.5781 11.8 17.3615 9.91667 18.9281 8.35C20.4948 6.78333 22.3781 6 24.5781 6C26.7781 6 28.6615 6.78333 30.2281 8.35C31.7948 9.91667 32.5781 11.8 32.5781 14C32.5781 16.2 31.7948 18.0833 30.2281 19.65C28.6615 21.2167 26.7781 22 24.5781 22ZM24.5781 18C25.6781 18 26.6198 17.6083 27.4031 16.825C28.1865 16.0417 28.5781 15.1 28.5781 14C28.5781 12.9 28.1865 11.9583 27.4031 11.175C26.6198 10.3917 25.6781 10 24.5781 10C23.4781 10 22.5365 10.3917 21.7531 11.175C20.9698 11.9583 20.5781 12.9 20.5781 14C20.5781 15.1 20.9698 16.0417 21.7531 16.825C22.5365 17.6083 23.4781 18 24.5781 18Z" fill="#F47920"/>
</svg>
