<svg xmlns="http://www.w3.org/2000/svg" width="20" height="20" viewBox="0 0 20 20"><path d="M13.132,3.125c-1.919,0-3.645-1.25-6.325-1.25a8.67,8.67,0,0,0-3.153.593A1.875,1.875,0,1,0,.937,3.5V19.375A.625.625,0,0,0,1.562,20h.625a.625.625,0,0,0,.625-.625V16.115A10.75,10.75,0,0,1,7.806,15c1.919,0,3.645,1.25,6.325,1.25a9.075,9.075,0,0,0,5.021-1.562A1.873,1.873,0,0,0,20,13.119V3.747a1.874,1.874,0,0,0-2.613-1.723A11.172,11.172,0,0,1,13.132,3.125Zm4.993,10a7.347,7.347,0,0,1-3.995,1.25c-2.342,0-3.984-1.25-6.325-1.25a13.4,13.4,0,0,0-4.993.938V5A7.347,7.347,0,0,1,6.807,3.75C9.149,3.75,10.792,5,13.132,5a13.357,13.357,0,0,0,4.993-1.25Z" transform="translate(0 0)" fill="#fff"/></svg>