<svg xmlns="http://www.w3.org/2000/svg" width="17.5" height="20" viewBox="0 0 17.5 20"><path d="M12.25,11.875c-1.121,0-1.66.625-3.5.625s-2.375-.625-3.5-.625A5.251,5.251,0,0,0,0,17.125v1A1.875,1.875,0,0,0,1.875,20h13.75A1.875,1.875,0,0,0,17.5,18.125v-1A5.251,5.251,0,0,0,12.25,11.875Zm3.375,6.25H1.875v-1A3.381,3.381,0,0,1,5.25,13.75a15.294,15.294,0,0,0,3.5.625,15.147,15.147,0,0,0,3.5-.625,3.381,3.381,0,0,1,3.375,3.375ZM8.75,11.25A5.625,5.625,0,1,0,3.125,5.625,5.626,5.626,0,0,0,8.75,11.25Zm0-9.375A3.75,3.75,0,1,1,5,5.625,3.756,3.756,0,0,1,8.75,1.875Z" fill="#fff"/></svg>