<svg width="16" height="17" viewBox="0 0 16 17" fill="none" xmlns="http://www.w3.org/2000/svg">
    <path d="M14.8156 0.800781H1.18125C0.528125 0.800781 0 1.31641 0 1.95391V15.6445C0 16.282 0.528125 16.8008 1.18125 16.8008H14.8156C15.4688 16.8008 16 16.282 16 15.6477V1.95391C16 1.31641 15.4688 0.800781 14.8156 0.800781ZM4.74687 14.4352H2.37188V6.79766H4.74687V14.4352ZM3.55938 5.75703C2.79688 5.75703 2.18125 5.14141 2.18125 4.38203C2.18125 3.62266 2.79688 3.00703 3.55938 3.00703C4.31875 3.00703 4.93437 3.62266 4.93437 4.38203C4.93437 5.13828 4.31875 5.75703 3.55938 5.75703ZM13.6344 14.4352H11.2625V10.7227C11.2625 9.83828 11.2469 8.69766 10.0281 8.69766C8.79375 8.69766 8.60625 9.66328 8.60625 10.6602V14.4352H6.2375V6.79766H8.5125V7.84141H8.54375C8.85937 7.24141 9.63438 6.60703 10.7875 6.60703C13.1906 6.60703 13.6344 8.18828 13.6344 10.2445V14.4352V14.4352Z" fill="white"/>
</svg>
